<svg xmlns="http://www.w3.org/2000/svg" xmlns:xlink="http://www.w3.org/1999/xlink" viewBox="0 0 101.23 22.21"><defs><style>.cls-1{fill:#424ff2;}.cls-2{fill:#f11ddb;}.cls-3{fill:url(#gradient-1);}.cls-4{fill:url(#gradient-2);}.cls-5{fill:#4c4c4c;}</style><linearGradient id="gradient-1" x1="9.18" y1="9.29" x2="16.34" y2="16.59" gradientUnits="userSpaceOnUse"><stop offset="0" stop-color="#424ff2"/><stop offset="1" stop-color="#f11ddb"/></linearGradient><linearGradient id="gradient-2" x1="9.23" y1="9.24" x2="16.38" y2="16.55" xlink:href="#gradient-1"/></defs><g id="layer-2" data-name="layer 2"><g id="layer 1" data-name="layer 1"><path class="cls-1" d="M16.66,0H5.55A5.56,5.56,0,0,0,0,5.55V16.66a5.56,5.56,0,0,0,5.55,5.55h5.56V17.77a6.67,6.67,0,1,1,6.66-6.66h4.44V5.55A5.56,5.56,0,0,0,16.66,0Z"/><path class="cls-2" d="M21.4,16.66h.82a0,0,0,0,1,0,0v5.55a0,0,0,0,1,0,0H16.66a0,0,0,0,1,0,0V21.4A4.74,4.74,0,0,1,21.4,16.66Z"/><circle class="cls-3" cx="11.38" cy="11.53" r="2.78"/><circle class="cls-4" cx="15.58" cy="15.73" r="1.39"/><path class="cls-5" d="M32.28,15.77a.84.84,0,0,0,.13.51.59.59,0,0,0,.46.15l.33,0,.21,1.37a3.41,3.41,0,0,1-1.14.21,2.06,2.06,0,0,1-1.46-.49,1.88,1.88,0,0,1-.53-1.43V5.82h2Z"/><path class="cls-5" d="M37.66,17.77h-2V10.66H34.37V9.18h3.29ZM35.72,7.49a1.15,1.15,0,0,1-.35-.85,1.21,1.21,0,0,1,1.21-1.21,1.21,1.21,0,0,1,.86.35,1.18,1.18,0,0,1,.35.86,1.15,1.15,0,0,1-.35.85,1.23,1.23,0,0,1-1.72,0Z"/><path class="cls-5" d="M46.86,9.71a2.82,2.82,0,0,1,.78,2.12v5.94h-2V12c0-1-.45-1.52-1.34-1.52a2.25,2.25,0,0,0-1.86,1.07v6.23h-2V9.18h1.71l.13.87A3.14,3.14,0,0,1,44.83,9,2.82,2.82,0,0,1,46.86,9.71Z"/><path class="cls-5" d="M57.24,9.18V21h-2V17.06a2.9,2.9,0,0,1-2.16.92,3.14,3.14,0,0,1-1.74-.5,3.37,3.37,0,0,1-1.2-1.42,4.94,4.94,0,0,1-.44-2.13V13a4.75,4.75,0,0,1,.45-2.09,3.51,3.51,0,0,1,1.23-1.45A3.25,3.25,0,0,1,53.2,9a3.16,3.16,0,0,1,1.22.23,2.89,2.89,0,0,1,1,.71l.11-.71Zm-2.81,7.06a2.9,2.9,0,0,0,.8-.68V11.18a2.35,2.35,0,0,0-.74-.52,2.48,2.48,0,0,0-1-.19,1.61,1.61,0,0,0-1.36.65A3.07,3.07,0,0,0,51.7,13v1a3.17,3.17,0,0,0,.46,1.89,1.55,1.55,0,0,0,1.31.63A1.9,1.9,0,0,0,54.43,16.24Z"/><path class="cls-5" d="M60.63,17.67a4.52,4.52,0,0,1-1.57-.87L60,15.66a4.18,4.18,0,0,0,1.15.62,3.51,3.51,0,0,0,1.28.22c1.08,0,1.63-.32,1.63-.94v-.13a.86.86,0,0,0-.29-.67,3.74,3.74,0,0,0-1.15-.54l-1.08-.37A4.06,4.06,0,0,1,60,13a1.82,1.82,0,0,1-.51-1.32v-.35a1.87,1.87,0,0,1,.42-1.2,2.82,2.82,0,0,1,1.16-.83A4.49,4.49,0,0,1,62.74,9a5.47,5.47,0,0,1,1.77.29A4.13,4.13,0,0,1,66,10l-.92,1.09a4.26,4.26,0,0,0-1.12-.55,4.35,4.35,0,0,0-1.12-.14,1.81,1.81,0,0,0-1,.23.73.73,0,0,0-.34.59v.13a.76.76,0,0,0,.29.6,4,4,0,0,0,1.1.53l1.08.37a4.41,4.41,0,0,1,1.57.89,1.88,1.88,0,0,1,.53,1.42v.36a2,2,0,0,1-1,1.78,4.41,4.41,0,0,1-2.46.64A6,6,0,0,1,60.63,17.67Z"/><path class="cls-5" d="M74.61,9.71a2.79,2.79,0,0,1,.79,2.12v5.94h-2V12c0-1-.45-1.52-1.36-1.52a2.18,2.18,0,0,0-1.85,1.1v6.2h-2V5.82h2V9.91a3.07,3.07,0,0,1,2.39-1A2.82,2.82,0,0,1,74.61,9.71Z"/><path class="cls-5" d="M83.56,9.75A2.94,2.94,0,0,1,84.4,12v5.8H82.83L82.67,17a3.49,3.49,0,0,1-2.55,1,3.39,3.39,0,0,1-1.43-.3,2.49,2.49,0,0,1-1-.85,2.21,2.21,0,0,1-.39-1.29V15a2.12,2.12,0,0,1,.95-1.81,4.48,4.48,0,0,1,2.62-.68h1.58v-.58A1.41,1.41,0,0,0,82,10.8a1.65,1.65,0,0,0-1.15-.35,4.7,4.7,0,0,0-1.27.17,6.61,6.61,0,0,0-1.23.48l-.62-1.24A6.16,6.16,0,0,1,81.06,9,3.51,3.51,0,0,1,83.56,9.75Zm-2,6.53a2.18,2.18,0,0,0,.86-.62V13.75H81c-1.18,0-1.77.44-1.77,1.31v.32a1.07,1.07,0,0,0,.31.82,1.34,1.34,0,0,0,1,.3A2.49,2.49,0,0,0,81.55,16.28Z"/><path class="cls-5" d="M92.15,9.15,91.8,11a3,3,0,0,0-.52,0,2.33,2.33,0,0,0-1.35.38,2.57,2.57,0,0,0-.91,1.3v5.13H87V9.18h1.45l.32,1.36a2.58,2.58,0,0,1,1-1.18A2.54,2.54,0,0,1,91.12,9,3.17,3.17,0,0,1,92.15,9.15Z"/><path class="cls-5" d="M99.67,9.45a3.37,3.37,0,0,1,1.15,1.43,5.34,5.34,0,0,1,.41,2.14v.86a4.81,4.81,0,0,1-.46,2.11,3.64,3.64,0,0,1-1.26,1.47,3.2,3.2,0,0,1-1.79.52,3.1,3.1,0,0,1-2-.69V21h-2V9.18h1.72l.11.82A3.06,3.06,0,0,1,98,9,3,3,0,0,1,99.67,9.45ZM99.23,13a3.19,3.19,0,0,0-.45-1.86,1.44,1.44,0,0,0-1.25-.63,2.14,2.14,0,0,0-1,.24,2.32,2.32,0,0,0-.79.67v4.5a2.43,2.43,0,0,0,1.63.6,1.62,1.62,0,0,0,1.36-.65,3.06,3.06,0,0,0,.5-1.89Z"/></g></g></svg>